<?xml version="1.0" encoding="UTF-8"?>
<svg version="1.1" xmlns="http://www.w3.org/2000/svg" width="480" height="480">
<path d="M0 0 C34.32 0 68.64 0 104 0 C104 1.32 104 2.64 104 4 C110.6 4 117.2 4 124 4 C124 5.32 124 6.64 124 8 C127.96 8 131.92 8 136 8 C136 9.32 136 10.64 136 12 C139.96 12 143.92 12 148 12 C148 13.32 148 14.64 148 16 C151.96 16 155.92 16 160 16 C160 17.32 160 18.64 160 20 C162.64 20 165.28 20 168 20 C168 21.32 168 22.64 168 24 C170.64 24 173.28 24 176 24 C176 25.32 176 26.64 176 28 C177.32 28 178.64 28 180 28 C180 29.32 180 30.64 180 32 C182.64 32 185.28 32 188 32 C188 33.32 188 34.64 188 36 C189.32 36 190.64 36 192 36 C192 37.32 192 38.64 192 40 C194.64 40 197.28 40 200 40 C200 41.32 200 42.64 200 44 C201.32 44 202.64 44 204 44 C204 45.32 204 46.64 204 48 C205.32 48 206.64 48 208 48 C208 49.32 208 50.64 208 52 C209.32 52 210.64 52 212 52 C212 53.32 212 54.64 212 56 C213.32 56 214.64 56 216 56 C216 57.32 216 58.64 216 60 C217.32 60 218.64 60 220 60 C220 61.32 220 62.64 220 64 C221.32 64 222.64 64 224 64 C224 65.32 224 66.64 224 68 C225.32 68 226.64 68 228 68 C228 69.32 228 70.64 228 72 C229.32 72 230.64 72 232 72 C232 73.32 232 74.64 232 76 C233.32 76 234.64 76 236 76 C236 77.32 236 78.64 236 80 C237.32 80 238.64 80 240 80 C240 82.64 240 85.28 240 88 C241.32 88 242.64 88 244 88 C244 89.32 244 90.64 244 92 C245.32 92 246.64 92 248 92 C248 94.64 248 97.28 248 100 C249.32 100 250.64 100 252 100 C252 102.64 252 105.28 252 108 C253.32 108 254.64 108 256 108 C256 110.64 256 113.28 256 116 C257.32 116 258.64 116 260 116 C260 118.64 260 121.28 260 124 C261.32 124 262.64 124 264 124 C264 127.96 264 131.92 264 136 C265.32 136 266.64 136 268 136 C268 139.96 268 143.92 268 148 C269.32 148 270.64 148 272 148 C272 154.6 272 161.2 272 168 C273.32 168 274.64 168 276 168 C276 199.68 276 231.36 276 264 C274.68 264 273.36 264 272 264 C272 270.6 272 277.2 272 284 C270.68 284 269.36 284 268 284 C268 287.96 268 291.92 268 296 C266.68 296 265.36 296 264 296 C264 299.96 264 303.92 264 308 C262.68 308 261.36 308 260 308 C260 310.64 260 313.28 260 316 C258.68 316 257.36 316 256 316 C256 318.64 256 321.28 256 324 C254.68 324 253.36 324 252 324 C252 326.64 252 329.28 252 332 C250.68 332 249.36 332 248 332 C248 334.64 248 337.28 248 340 C246.68 340 245.36 340 244 340 C244 341.32 244 342.64 244 344 C242.68 344 241.36 344 240 344 C240 346.64 240 349.28 240 352 C238.68 352 237.36 352 236 352 C236 353.32 236 354.64 236 356 C234.68 356 233.36 356 232 356 C232 357.32 232 358.64 232 360 C230.68 360 229.36 360 228 360 C228 361.32 228 362.64 228 364 C226.68 364 225.36 364 224 364 C224 365.32 224 366.64 224 368 C222.68 368 221.36 368 220 368 C220 369.32 220 370.64 220 372 C218.68 372 217.36 372 216 372 C216 373.32 216 374.64 216 376 C214.68 376 213.36 376 212 376 C212 377.32 212 378.64 212 380 C210.68 380 209.36 380 208 380 C208 381.32 208 382.64 208 384 C206.68 384 205.36 384 204 384 C204 385.32 204 386.64 204 388 C202.68 388 201.36 388 200 388 C200 389.32 200 390.64 200 392 C197.36 392 194.72 392 192 392 C192 393.32 192 394.64 192 396 C190.68 396 189.36 396 188 396 C188 397.32 188 398.64 188 400 C185.36 400 182.72 400 180 400 C180 401.32 180 402.64 180 404 C178.68 404 177.36 404 176 404 C176 405.32 176 406.64 176 408 C173.36 408 170.72 408 168 408 C168 409.32 168 410.64 168 412 C165.36 412 162.72 412 160 412 C160 413.32 160 414.64 160 416 C156.04 416 152.08 416 148 416 C148 417.32 148 418.64 148 420 C144.04 420 140.08 420 136 420 C136 421.32 136 422.64 136 424 C132.04 424 128.08 424 124 424 C124 425.32 124 426.64 124 428 C117.4 428 110.8 428 104 428 C104 429.32 104 430.64 104 432 C69.68 432 35.36 432 0 432 C0 430.68 0 429.36 0 428 C-6.6 428 -13.2 428 -20 428 C-20 426.68 -20 425.36 -20 424 C-23.96 424 -27.92 424 -32 424 C-32 422.68 -32 421.36 -32 420 C-35.96 420 -39.92 420 -44 420 C-44 418.68 -44 417.36 -44 416 C-47.96 416 -51.92 416 -56 416 C-56 414.68 -56 413.36 -56 412 C-58.64 412 -61.28 412 -64 412 C-64 410.68 -64 409.36 -64 408 C-66.64 408 -69.28 408 -72 408 C-72 406.68 -72 405.36 -72 404 C-73.32 404 -74.64 404 -76 404 C-76 402.68 -76 401.36 -76 400 C-78.64 400 -81.28 400 -84 400 C-84 398.68 -84 397.36 -84 396 C-85.32 396 -86.64 396 -88 396 C-88 394.68 -88 393.36 -88 392 C-90.64 392 -93.28 392 -96 392 C-96 390.68 -96 389.36 -96 388 C-97.32 388 -98.64 388 -100 388 C-100 386.68 -100 385.36 -100 384 C-101.32 384 -102.64 384 -104 384 C-104 382.68 -104 381.36 -104 380 C-105.32 380 -106.64 380 -108 380 C-108 378.68 -108 377.36 -108 376 C-109.32 376 -110.64 376 -112 376 C-112 374.68 -112 373.36 -112 372 C-113.32 372 -114.64 372 -116 372 C-116 370.68 -116 369.36 -116 368 C-117.32 368 -118.64 368 -120 368 C-120 366.68 -120 365.36 -120 364 C-121.32 364 -122.64 364 -124 364 C-124 362.68 -124 361.36 -124 360 C-125.32 360 -126.64 360 -128 360 C-128 358.68 -128 357.36 -128 356 C-129.32 356 -130.64 356 -132 356 C-132 354.68 -132 353.36 -132 352 C-133.32 352 -134.64 352 -136 352 C-136 349.36 -136 346.72 -136 344 C-137.32 344 -138.64 344 -140 344 C-140 342.68 -140 341.36 -140 340 C-141.32 340 -142.64 340 -144 340 C-144 337.36 -144 334.72 -144 332 C-145.32 332 -146.64 332 -148 332 C-148 329.36 -148 326.72 -148 324 C-149.32 324 -150.64 324 -152 324 C-152 321.36 -152 318.72 -152 316 C-153.32 316 -154.64 316 -156 316 C-156 313.36 -156 310.72 -156 308 C-157.32 308 -158.64 308 -160 308 C-160 304.04 -160 300.08 -160 296 C-161.32 296 -162.64 296 -164 296 C-164 292.04 -164 288.08 -164 284 C-165.32 284 -166.64 284 -168 284 C-168 277.4 -168 270.8 -168 264 C-169.32 264 -170.64 264 -172 264 C-172 232.32 -172 200.64 -172 168 C-170.68 168 -169.36 168 -168 168 C-168 161.4 -168 154.8 -168 148 C-166.68 148 -165.36 148 -164 148 C-164 144.04 -164 140.08 -164 136 C-162.68 136 -161.36 136 -160 136 C-160 132.04 -160 128.08 -160 124 C-158.68 124 -157.36 124 -156 124 C-156 121.36 -156 118.72 -156 116 C-154.68 116 -153.36 116 -152 116 C-152 113.36 -152 110.72 -152 108 C-150.68 108 -149.36 108 -148 108 C-148 105.36 -148 102.72 -148 100 C-146.68 100 -145.36 100 -144 100 C-144 97.36 -144 94.72 -144 92 C-142.68 92 -141.36 92 -140 92 C-140 90.68 -140 89.36 -140 88 C-138.68 88 -137.36 88 -136 88 C-136 85.36 -136 82.72 -136 80 C-134.68 80 -133.36 80 -132 80 C-132 78.68 -132 77.36 -132 76 C-130.68 76 -129.36 76 -128 76 C-128 74.68 -128 73.36 -128 72 C-126.68 72 -125.36 72 -124 72 C-124 70.68 -124 69.36 -124 68 C-122.68 68 -121.36 68 -120 68 C-120 66.68 -120 65.36 -120 64 C-118.68 64 -117.36 64 -116 64 C-116 62.68 -116 61.36 -116 60 C-114.68 60 -113.36 60 -112 60 C-112 58.68 -112 57.36 -112 56 C-110.68 56 -109.36 56 -108 56 C-108 54.68 -108 53.36 -108 52 C-106.68 52 -105.36 52 -104 52 C-104 50.68 -104 49.36 -104 48 C-102.68 48 -101.36 48 -100 48 C-100 46.68 -100 45.36 -100 44 C-98.68 44 -97.36 44 -96 44 C-96 42.68 -96 41.36 -96 40 C-93.36 40 -90.72 40 -88 40 C-88 38.68 -88 37.36 -88 36 C-86.68 36 -85.36 36 -84 36 C-84 34.68 -84 33.36 -84 32 C-81.36 32 -78.72 32 -76 32 C-76 30.68 -76 29.36 -76 28 C-74.68 28 -73.36 28 -72 28 C-72 26.68 -72 25.36 -72 24 C-69.36 24 -66.72 24 -64 24 C-64 22.68 -64 21.36 -64 20 C-61.36 20 -58.72 20 -56 20 C-56 18.68 -56 17.36 -56 16 C-52.04 16 -48.08 16 -44 16 C-44 14.68 -44 13.36 -44 12 C-40.04 12 -36.08 12 -32 12 C-32 10.68 -32 9.36 -32 8 C-28.04 8 -24.08 8 -20 8 C-20 6.68 -20 5.36 -20 4 C-13.4 4 -6.8 4 0 4 C0 2.68 0 1.36 0 0 Z " fill="#FBFBF2" transform="translate(192,20)"/>
<path d="M0 0 C33 0 66 0 100 0 C100 3.96 100 7.92 100 12 C102.64 12 105.28 12 108 12 C108 14.64 108 17.28 108 20 C114.6 20 121.2 20 128 20 C128 17.36 128 14.72 128 12 C138.56 12 149.12 12 160 12 C160 14.64 160 17.28 160 20 C162.64 20 165.28 20 168 20 C168 23.96 168 27.92 168 32 C161.4 32 154.8 32 148 32 C148 28.04 148 24.08 148 20 C145.36 20 142.72 20 140 20 C140 23.96 140 27.92 140 32 C136.04 32 132.08 32 128 32 C128 38.6 128 45.2 128 52 C131.96 52 135.92 52 140 52 C140 57.28 140 62.56 140 68 C146.6 68 153.2 68 160 68 C160 71.96 160 75.92 160 80 C156.04 80 152.08 80 148 80 C148 95.84 148 111.68 148 128 C141.4 128 134.8 128 128 128 C128 131.96 128 135.92 128 140 C125.36 140 122.72 140 120 140 C120 145.28 120 150.56 120 156 C116.04 156 112.08 156 108 156 C108 169.2 108 182.4 108 196 C111.96 196 115.92 196 120 196 C120 205.24 120 214.48 120 224 C122.64 224 125.28 224 128 224 C128 230.6 128 237.2 128 244 C131.96 244 135.92 244 140 244 C140 247.96 140 251.92 140 256 C153.2 256 166.4 256 180 256 C180 252.04 180 248.08 180 244 C186.6 244 193.2 244 200 244 C200 241.36 200 238.72 200 236 C202.64 236 205.28 236 208 236 C208 232.04 208 228.08 208 224 C211.96 224 215.92 224 220 224 C220 221.36 220 218.72 220 216 C222.64 216 225.28 216 228 216 C228 206.76 228 197.52 228 188 C231.96 188 235.92 188 240 188 C240 174.8 240 161.6 240 148 C236.04 148 232.08 148 228 148 C228 138.76 228 129.52 228 120 C225.36 120 222.72 120 220 120 C220 113.4 220 106.8 220 100 C213.4 100 206.8 100 200 100 C200 96.04 200 92.08 200 88 C209.24 88 218.48 88 228 88 C228 94.6 228 101.2 228 108 C231.96 108 235.92 108 240 108 C240 118.56 240 129.12 240 140 C242.64 140 245.28 140 248 140 C248 158.48 248 176.96 248 196 C245.36 196 242.72 196 240 196 C240 205.24 240 214.48 240 224 C236.04 224 232.08 224 228 224 C228 227.96 228 231.92 228 236 C225.36 236 222.72 236 220 236 C220 238.64 220 241.28 220 244 C216.04 244 212.08 244 208 244 C208 247.96 208 251.92 208 256 C201.4 256 194.8 256 188 256 C188 258.64 188 261.28 188 264 C178.76 264 169.52 264 160 264 C160 267.96 160 271.92 160 276 C117.76 276 75.52 276 32 276 C32 272.04 32 268.08 32 264 C21.44 264 10.88 264 0 264 C0 261.36 0 258.72 0 256 C-9.24 256 -18.48 256 -28 256 C-28 252.04 -28 248.08 -28 244 C-31.96 244 -35.92 244 -40 244 C-40 241.36 -40 238.72 -40 236 C-42.64 236 -45.28 236 -48 236 C-48 229.4 -48 222.8 -48 216 C-54.6 216 -61.2 216 -68 216 C-68 213.36 -68 210.72 -68 208 C-74.6 208 -81.2 208 -88 208 C-88 204.04 -88 200.08 -88 196 C-91.96 196 -95.92 196 -100 196 C-100 193.36 -100 190.72 -100 188 C-102.64 188 -105.28 188 -108 188 C-108 184.04 -108 180.08 -108 176 C-111.96 176 -115.92 176 -120 176 C-120 173.36 -120 170.72 -120 168 C-109.44 168 -98.88 168 -88 168 C-88 164.04 -88 160.08 -88 156 C-81.4 156 -74.8 156 -68 156 C-68 153.36 -68 150.72 -68 148 C-61.4 148 -54.8 148 -48 148 C-48 141.4 -48 134.8 -48 128 C-45.36 128 -42.72 128 -40 128 C-40 96.32 -40 64.64 -40 32 C-36.04 32 -32.08 32 -28 32 C-28 28.04 -28 24.08 -28 20 C-25.36 20 -22.72 20 -20 20 C-20 17.36 -20 14.72 -20 12 C-13.4 12 -6.8 12 0 12 C0 8.04 0 4.08 0 0 Z " fill="#847577" transform="translate(168,92)"/>
<path d="M0 0 C25.08 0 50.16 0 76 0 C76 2.64 76 5.28 76 8 C79.96 8 83.92 8 88 8 C88 11.96 88 15.92 88 20 C90.64 20 93.28 20 96 20 C96 22.64 96 25.28 96 28 C99.96 28 103.92 28 108 28 C108 34.6 108 41.2 108 48 C110.64 48 113.28 48 116 48 C116 57.24 116 66.48 116 76 C119.96 76 123.92 76 128 76 C128 86.56 128 97.12 128 108 C114.8 108 101.6 108 88 108 C88 110.64 88 113.28 88 116 C81.4 116 74.8 116 68 116 C68 122.6 68 129.2 68 136 C65.36 136 62.72 136 60 136 C60 161.08 60 186.16 60 212 C62.64 212 65.28 212 68 212 C68 218.6 68 225.2 68 232 C70.64 232 73.28 232 76 232 C76 235.96 76 239.92 76 244 C79.96 244 83.92 244 88 244 C88 246.64 88 249.28 88 252 C72.16 252 56.32 252 40 252 C40 249.36 40 246.72 40 244 C36.04 244 32.08 244 28 244 C28 237.4 28 230.8 28 224 C25.36 224 22.72 224 20 224 C20 217.4 20 210.8 20 204 C16.04 204 12.08 204 8 204 C8 181.56 8 159.12 8 136 C11.96 136 15.92 136 20 136 C20 133.36 20 130.72 20 128 C2.84 128 -14.32 128 -32 128 C-32 124.04 -32 120.08 -32 116 C-34.64 116 -37.28 116 -40 116 C-40 86.96 -40 57.92 -40 28 C-37.36 28 -34.72 28 -32 28 C-32 25.36 -32 22.72 -32 20 C-28.04 20 -24.08 20 -20 20 C-20 16.04 -20 12.08 -20 8 C-13.4 8 -6.8 8 0 8 C0 5.36 0 2.72 0 0 Z " fill="#FBFBF2" transform="translate(180,104)"/>
<path d="M0 0 C2.64 0 5.28 0 8 0 C8 3.96 8 7.92 8 12 C18.56 12 29.12 12 40 12 C40 14.64 40 17.28 40 20 C42.64 20 45.28 20 48 20 C48 33.2 48 46.4 48 60 C51.96 60 55.92 60 60 60 C60 66.6 60 73.2 60 80 C66.6 80 73.2 80 80 80 C80 86.6 80 93.2 80 100 C82.64 100 85.28 100 88 100 C88 109.24 88 118.48 88 128 C91.96 128 95.92 128 100 128 C100 141.2 100 154.4 100 168 C96.04 168 92.08 168 88 168 C88 177.24 88 186.48 88 196 C85.36 196 82.72 196 80 196 C80 198.64 80 201.28 80 204 C76.04 204 72.08 204 68 204 C68 207.96 68 211.92 68 216 C65.36 216 62.72 216 60 216 C60 218.64 60 221.28 60 224 C53.4 224 46.8 224 40 224 C40 227.96 40 231.92 40 236 C26.8 236 13.6 236 0 236 C0 232.04 0 228.08 0 224 C-3.96 224 -7.92 224 -12 224 C-12 217.4 -12 210.8 -12 204 C-14.64 204 -17.28 204 -20 204 C-20 194.76 -20 185.52 -20 176 C-23.96 176 -27.92 176 -32 176 C-32 162.8 -32 149.6 -32 136 C-28.04 136 -24.08 136 -20 136 C-20 130.72 -20 125.44 -20 120 C-17.36 120 -14.72 120 -12 120 C-12 116.04 -12 112.08 -12 108 C-5.4 108 1.2 108 8 108 C8 92.16 8 76.32 8 60 C11.96 60 15.92 60 20 60 C20 56.04 20 52.08 20 48 C13.4 48 6.8 48 0 48 C0 42.72 0 37.44 0 32 C-3.96 32 -7.92 32 -12 32 C-12 25.4 -12 18.8 -12 12 C-8.04 12 -4.08 12 0 12 C0 8.04 0 4.08 0 0 Z " fill="#FBFBF2" transform="translate(308,112)"/>
<path d="M0 0 C2.64 0 5.28 0 8 0 C8 3.96 8 7.92 8 12 C18.56 12 29.12 12 40 12 C40 14.64 40 17.28 40 20 C42.64 20 45.28 20 48 20 C48 33.2 48 46.4 48 60 C51.96 60 55.92 60 60 60 C60 62.64 60 65.28 60 68 C46.8 68 33.6 68 20 68 C20 61.4 20 54.8 20 48 C13.4 48 6.8 48 0 48 C0 42.72 0 37.44 0 32 C-3.96 32 -7.92 32 -12 32 C-12 25.4 -12 18.8 -12 12 C-8.04 12 -4.08 12 0 12 C0 8.04 0 4.08 0 0 Z " fill="#FBFBF2" transform="translate(308,112)"/>
<path d="M0 0 C3.96 0 7.92 0 12 0 C12 2.64 12 5.28 12 8 C14.64 8 17.28 8 20 8 C20 30.44 20 52.88 20 76 C23.96 76 27.92 76 32 76 C32 85.24 32 94.48 32 104 C28.04 104 24.08 104 20 104 C20 101.36 20 98.72 20 96 C17.36 96 14.72 96 12 96 C12 92.04 12 88.08 12 84 C8.04 84 4.08 84 0 84 C0 78.72 0 73.44 0 68 C-2.64 68 -5.28 68 -8 68 C-8 50.84 -8 33.68 -8 16 C-5.36 16 -2.72 16 0 16 C0 10.72 0 5.44 0 0 Z " fill="#FBFBF2" transform="translate(128,232)"/>
<path d="M0 0 C3.96 0 7.92 0 12 0 C12 2.64 12 5.28 12 8 C14.64 8 17.28 8 20 8 C20 21.2 20 34.4 20 48 C23.96 48 27.92 48 32 48 C32 50.64 32 53.28 32 56 C18.8 56 5.6 56 -8 56 C-8 53.36 -8 50.72 -8 48 C-1.4 48 5.2 48 12 48 C12 38.76 12 29.52 12 20 C8.04 20 4.08 20 0 20 C0 13.4 0 6.8 0 0 Z " fill="#847577" transform="translate(336,124)"/>
<path d="M0 0 C6.6 0 13.2 0 20 0 C20 2.64 20 5.28 20 8 C25.28 8 30.56 8 36 8 C36 14.6 36 21.2 36 28 C39.96 28 43.92 28 48 28 C48 30.64 48 33.28 48 36 C41.4 36 34.8 36 28 36 C28 30.72 28 25.44 28 20 C21.4 20 14.8 20 8 20 C8 16.04 8 12.08 8 8 C5.36 8 2.72 8 0 8 C0 5.36 0 2.72 0 0 Z " fill="#847577" transform="translate(220,124)"/>
<path d="M0 0 C6.6 0 13.2 0 20 0 C20 6.6 20 13.2 20 20 C13.4 20 6.8 20 0 20 C0 13.4 0 6.8 0 0 Z " fill="#847577" transform="translate(368,240)"/>
<path d="M0 0 C6.6 0 13.2 0 20 0 C20 6.6 20 13.2 20 20 C13.4 20 6.8 20 0 20 C0 13.4 0 6.8 0 0 Z " fill="#847577" transform="translate(308,240)"/>
<path d="M0 0 C3.96 0 7.92 0 12 0 C12 3.96 12 7.92 12 12 C14.64 12 17.28 12 20 12 C20 14.64 20 17.28 20 20 C13.4 20 6.8 20 0 20 C0 13.4 0 6.8 0 0 Z " fill="#847577" transform="translate(316,132)"/>
<path d="M0 0 C6.6 0 13.2 0 20 0 C20 3.96 20 7.92 20 12 C13.4 12 6.8 12 0 12 C0 8.04 0 4.08 0 0 Z " fill="#847577" transform="translate(336,288)"/>
<path d="M0 0 C6.6 0 13.2 0 20 0 C20 2.64 20 5.28 20 8 C13.4 8 6.8 8 0 8 C0 5.36 0 2.72 0 0 Z " fill="#FBFBF2" transform="translate(88,260)"/>
</svg>
